<svg width="12" height="6" viewBox="0 0 12 6" fill="none" xmlns="http://www.w3.org/2000/svg">
<path d="M5.86839 1.30083L1.21399 5.8299C1.17648 5.86718 1.13195 5.89666 1.08297 5.91663C1.034 5.93659 0.981547 5.94665 0.928659 5.94621C0.875771 5.94577 0.823495 5.93484 0.774857 5.91407C0.726218 5.89329 0.682183 5.86308 0.645299 5.82517C0.608415 5.78726 0.579415 5.74242 0.559977 5.69323C0.540538 5.64404 0.531048 5.59149 0.532055 5.53861C0.533061 5.48573 0.544545 5.43357 0.565842 5.38516C0.587138 5.33675 0.617825 5.29304 0.656125 5.25656L5.58946 0.456563C5.66413 0.383911 5.76421 0.343262 5.86839 0.343262C5.97258 0.343262 6.07265 0.383911 6.14733 0.456563L11.0807 5.25656C11.119 5.29304 11.1496 5.33675 11.1709 5.38516C11.1922 5.43357 11.2037 5.48573 11.2047 5.53861C11.2057 5.59149 11.1962 5.64404 11.1768 5.69323C11.1574 5.74242 11.1284 5.78727 11.0915 5.82517C11.0546 5.86308 11.0106 5.89329 10.9619 5.91407C10.9133 5.93485 10.861 5.94577 10.8081 5.94621C10.7552 5.94665 10.7028 5.93659 10.6538 5.91663C10.6048 5.89666 10.5603 5.86718 10.5228 5.8299L5.86839 1.30083Z" fill="#E0E0E0"/>
</svg>
