<svg width="32" height="32" viewBox="0 0 32 32" fill="none" xmlns="http://www.w3.org/2000/svg">
<path d="M16 -6.99382e-07C24.8366 -3.13124e-07 32 7.16344 32 16C32 24.8366 24.8366 32 16 32C7.16344 32 -1.08564e-06 24.8366 -6.99382e-07 16C-3.13124e-07 7.16344 7.16344 -1.08564e-06 16 -6.99382e-07Z" fill="#8035FB"/>
<path d="M17.6463 25.3535C17.5998 25.3071 17.5629 25.252 17.5377 25.1913C17.5126 25.1306 17.4996 25.0655 17.4996 24.9998C17.4996 24.9341 17.5126 24.869 17.5377 24.8083C17.5629 24.7476 17.5998 24.6925 17.6463 24.646L25.7925 16.4998L5.00001 16.4998C4.8674 16.4998 4.74022 16.4471 4.64645 16.3533C4.55268 16.2596 4.50001 16.1324 4.50001 15.9998C4.50001 15.8672 4.55268 15.74 4.64645 15.6462C4.74022 15.5525 4.8674 15.4998 5.00001 15.4998L25.7925 15.4998L17.6463 7.35354C17.5998 7.30708 17.5629 7.25193 17.5378 7.19124C17.5127 7.13054 17.4997 7.06549 17.4997 6.99979C17.4997 6.93409 17.5127 6.86904 17.5378 6.80834C17.5629 6.74764 17.5998 6.69249 17.6463 6.64604C17.6927 6.59958 17.7479 6.56273 17.8086 6.53759C17.8693 6.51245 17.9343 6.49951 18 6.49951C18.0657 6.49951 18.1308 6.51245 18.1915 6.53759C18.2521 6.56273 18.3073 6.59958 18.3538 6.64604L27.3538 15.646C27.4002 15.6925 27.4371 15.7476 27.4623 15.8083C27.4874 15.869 27.5004 15.9341 27.5004 15.9998C27.5004 16.0655 27.4874 16.1306 27.4623 16.1913C27.4371 16.252 27.4002 16.3071 27.3538 16.3535L18.3538 25.3535C18.3073 25.4 18.2522 25.4369 18.1915 25.4621C18.1308 25.4872 18.0657 25.5002 18 25.5002C17.9343 25.5002 17.8692 25.4872 17.8085 25.4621C17.7478 25.4369 17.6927 25.4 17.6463 25.3535Z" fill="white"/>
</svg>
