<svg width="10" height="18" viewBox="0 0 10 18" fill="none" xmlns="http://www.w3.org/2000/svg">
<path d="M5 0C3.67392 0 2.40215 0.526784 1.46447 1.46447C0.526784 2.40215 0 3.67392 0 5C0 5.26522 0.105357 5.51957 0.292893 5.70711C0.48043 5.89464 0.734783 6 1 6C1.26522 6 1.51957 5.89464 1.70711 5.70711C1.89464 5.51957 2 5.26522 2 5C2 3.342 3.342 2 5 2C6.658 2 8 3.342 8 5C8 5.816 7.801 6.294 7.562 6.629C7.3 6.994 6.937 7.267 6.434 7.614L6.318 7.692C5.871 7.998 5.295 8.391 4.849 8.939C4.322 9.587 4 10.406 4 11.5V12C4 12.2652 4.10536 12.5196 4.29289 12.7071C4.48043 12.8946 4.73478 13 5 13C5.26522 13 5.51957 12.8946 5.70711 12.7071C5.89464 12.5196 6 12.2652 6 12V11.5C6 10.844 6.178 10.476 6.4 10.201C6.657 9.887 7.003 9.649 7.514 9.298L7.567 9.261C8.063 8.921 8.7 8.475 9.187 7.793C9.7 7.081 10 6.183 10 5C10 3.67392 9.47321 2.40215 8.53553 1.46447C7.59785 0.526784 6.32608 0 5 0ZM5 17.25C5.33152 17.25 5.64946 17.1183 5.88388 16.8839C6.1183 16.6495 6.25 16.3315 6.25 16C6.25 15.6685 6.1183 15.3505 5.88388 15.1161C5.64946 14.8817 5.33152 14.75 5 14.75C4.66848 14.75 4.35054 14.8817 4.11612 15.1161C3.8817 15.3505 3.75 15.6685 3.75 16C3.75 16.3315 3.8817 16.6495 4.11612 16.8839C4.35054 17.1183 4.66848 17.25 5 17.25Z" fill="#2CDE7B"/>
</svg>
