<svg width="30" height="30" viewBox="0 0 30 30" fill="none" xmlns="http://www.w3.org/2000/svg">
<path d="M15 -6.55671e-07C23.2843 -2.93554e-07 30 6.71573 30 15V15C30 23.2843 23.2843 30 15 30V30C6.71573 30 -1.01779e-06 23.2843 -6.55671e-07 15V15C-2.93554e-07 6.71573 6.71573 -1.01779e-06 15 -6.55671e-07V-6.55671e-07Z" fill="#086bcd"/>
<path d="M16.5435 23.7692C16.4999 23.7256 16.4653 23.6739 16.4417 23.617C16.4181 23.5601 16.406 23.4991 16.406 23.4375C16.406 23.3759 16.4181 23.3149 16.4417 23.258C16.4653 23.2011 16.4999 23.1494 16.5435 23.1059L24.1806 15.4688L4.68762 15.4688C4.5633 15.4688 4.44407 15.4194 4.35617 15.3315C4.26826 15.2436 4.21887 15.1243 4.21887 15C4.21887 14.8757 4.26826 14.7565 4.35617 14.6686C4.44407 14.5807 4.5633 14.5313 4.68762 14.5313L24.1806 14.5313L16.5435 6.89416C16.4999 6.85061 16.4654 6.7989 16.4418 6.742C16.4182 6.6851 16.4061 6.62411 16.4061 6.56252C16.4061 6.50092 16.4182 6.43994 16.4418 6.38303C16.4654 6.32613 16.4999 6.27443 16.5435 6.23088C16.587 6.18732 16.6387 6.15278 16.6956 6.12921C16.7525 6.10564 16.8135 6.09351 16.8751 6.09351C16.9367 6.09351 16.9977 6.10564 17.0546 6.12921C17.1115 6.15278 17.1632 6.18732 17.2068 6.23088L25.6443 14.6684C25.6878 14.7119 25.7224 14.7636 25.746 14.8205C25.7696 14.8774 25.7817 14.9384 25.7817 15C25.7817 15.0616 25.7696 15.1226 25.746 15.1795C25.7224 15.2364 25.6878 15.2881 25.6443 15.3317L17.2068 23.7692C17.1632 23.8127 17.1115 23.8473 17.0546 23.8709C16.9977 23.8945 16.9367 23.9066 16.8751 23.9066C16.8135 23.9066 16.7525 23.8945 16.6956 23.8709C16.6387 23.8473 16.587 23.8127 16.5435 23.7692Z" fill="white"/>
</svg>
